<svg xmlns="http://www.w3.org/2000/svg" viewBox="0 0 480 168" width="480" height="168" role="img" aria-label="시작 노드에서 동작 노드를 거쳐 분기 노드에 이르고, 분기의 성공 출력은 종료로 실패 출력은 동작으로 되돌아가는 흐름도">
  <rect x="0" y="0" width="480" height="168" rx="14" fill="#1d222d"/>
  <defs>
    <marker id="gh-af1" viewBox="0 0 10 10" refX="8" refY="5" markerWidth="6" markerHeight="6" orient="auto-start-reverse">
      <path d="M0 0 L10 5 L0 10 z" fill="#9aa3b8"/>
    </marker>
  </defs>

  <rect x="20" y="66" width="88" height="40" rx="8" fill="#2a3040" stroke="#5fbf9c" stroke-width="2"/>
  <rect x="20" y="66" width="5" height="40" rx="2.5" fill="#5fbf9c"/>
  <text x="42" y="90" fill="#ffffff" font-family="Segoe UI, Malgun Gothic, sans-serif" font-size="13" font-weight="700">시작</text>

  <line x1="108" y1="86" x2="146" y2="86" stroke="#6b7386" stroke-width="1.6" marker-end="url(#gh-af1)"/>

  <rect x="150" y="66" width="96" height="40" rx="8" fill="#2a3040" stroke="#3a4256" stroke-width="1.6"/>
  <rect x="150" y="66" width="5" height="40" rx="2.5" fill="#7aa8e0"/>
  <text x="170" y="90" fill="#ffffff" font-family="Segoe UI, Malgun Gothic, sans-serif" font-size="13" font-weight="700">동작</text>

  <line x1="246" y1="86" x2="284" y2="86" stroke="#6b7386" stroke-width="1.6" marker-end="url(#gh-af1)"/>

  <rect x="288" y="58" width="96" height="54" rx="8" fill="#2a3040" stroke="#3a4256" stroke-width="1.6"/>
  <rect x="288" y="58" width="5" height="54" rx="2.5" fill="#f0a35a"/>
  <text x="308" y="90" fill="#ffffff" font-family="Segoe UI, Malgun Gothic, sans-serif" font-size="13" font-weight="700">분기</text>
  <circle cx="384" cy="72" r="3.6" fill="#5fbf9c"/>
  <circle cx="384" cy="100" r="3.6" fill="#e0605a"/>

  <path d="M387 72 C 410 72, 412 40, 434 40" fill="none" stroke="#5fbf9c" stroke-width="1.8" marker-end="url(#gh-af1)"/>
  <text x="392" y="36" fill="#5fbf9c" font-family="Segoe UI, Malgun Gothic, sans-serif" font-size="10.5" font-weight="700">성공</text>
  <rect x="410" y="18" width="60" height="34" rx="8" fill="#2a3040" stroke="#5fbf9c" stroke-width="2"/>
  <text x="424" y="40" fill="#ffffff" font-family="Segoe UI, Malgun Gothic, sans-serif" font-size="12" font-weight="700">종료</text>

  <path d="M387 100 C 420 100, 420 138, 198 138 C 172 138, 172 118, 175 106" fill="none" stroke="#e0605a" stroke-width="1.8" marker-end="url(#gh-af1)"/>
  <text x="215" y="152" fill="#e0605a" font-family="Segoe UI, Malgun Gothic, sans-serif" font-size="10.5" font-weight="700">실패 → 재시도</text>
</svg>
